<?xml version="1.0" encoding="utf-8"?>
<!-- Generator: Adobe Illustrator 21.0.2, SVG Export Plug-In . SVG Version: 6.00 Build 0)  -->
<svg version="1.1" id="Layer_1" xmlns="http://www.w3.org/2000/svg" xmlns:xlink="http://www.w3.org/1999/xlink" x="0px" y="0px"
	 viewBox="0 0 102 72" style="enable-background:new 0 0 102 72;" xml:space="preserve">
<style type="text/css">
	.st0{fill:#E42313;}
</style>
<g>
	<circle class="st0" cx="42.6" cy="57.2" r="3.8"/>
	<circle class="st0" cx="65.3" cy="57.2" r="3.8"/>
	<path class="st0" d="M80.4,19.8c-0.3-0.3-0.8-0.6-1.3-0.6H26.9l-1.5-6c-0.1-0.4-0.4-0.8-0.9-1l0,0L13.7,6.9
		c-0.3-0.1-0.5-0.2-0.8-0.2c-0.6,0-1.2,0.3-1.5,0.8c-0.2,0.3-0.2,0.7-0.1,1c0.1,0.4,0.4,0.7,0.8,0.9l10.3,5.1l1.8,7.4l9.4,22.7
		l0.9,5.8v0.1c0,0.8,0.7,1.4,1.7,1.4H74c0.9,0,1.7-0.6,1.7-1.4c0-0.8-0.7-1.4-1.7-1.4H39.8l-0.1-3.7l34.7-3.6
		c0.7-0.1,1.3-0.5,1.4-1.1L80.7,21C80.8,20.6,80.7,20.2,80.4,19.8z"/>
</g>
</svg>
